<?xml version="1.0" encoding="utf-8"?>
<!-- Generator: Adobe Illustrator 24.0.1, SVG Export Plug-In . SVG Version: 6.00 Build 0)  -->
<svg version="1.1" id="Layer_1" xmlns="http://www.w3.org/2000/svg" xmlns:xlink="http://www.w3.org/1999/xlink" x="0px" y="0px"
	 viewBox="0 0 1080 1080" style="enable-background:new 0 0 1080 1080;" xml:space="preserve">
<style type="text/css">
	.st0{fill:#1FC1AD;}
</style>
<path class="st0" d="M916.71,381.34c-48.77-105.28-145.14-190.82-257.76-228.82c-131.1-44.23-280.89-25.09-433.17,55.37
	c-4.82,2.55-8.37,6.98-9.8,12.24c-1.43,5.26-0.63,10.88,2.23,15.52c0.85,1.39,12.29,19.79,35.17,49.36
	C178.28,348.28,131,440.33,131,542.84c0,36.13,5.89,70.96,16.77,103.69c38.23,31.87,87.71,47.22,140.17,43.4
	c54.41-3.99,108.18-27.49,156.35-68.18c-6.72-15.66-9.16-31.33-9.06-42.96c0.1-10.89,8.99-19.7,19.88-19.53
	c10.84,0.1,19.56,8.94,19.51,19.78c0.02,3.23,0.57,19.75,10,35.32c0.52,0.84,1.06,1.67,1.63,2.51c8.37,12.41,22.78,23.65,47.56,26.4
	c10.81,1.21,18.62,10.94,17.41,21.75c-1.11,10.1-9.65,17.56-19.56,17.56c-0.71,0-1.45-0.05-2.19-0.12
	c-28.2-3.13-48.55-13.94-62.95-27.96c-53.74,44.48-114.11,70.2-175.69,74.7c-6.28,0.47-12.51,0.69-18.69,0.69
	c-33.57,0-65.86-6.7-95.29-19.58c34.64,58.9,87.04,107.18,150.34,138.57c-12.12,10.39-23.09,21.09-32.85,32.16
	c-4.21,4.77-5.86,11.29-4.41,17.49c1.44,6.2,5.79,11.33,11.68,13.75c2.52,1.04,62.79,25.61,149.33,34.95
	c21.56,2.33,42.83,3.49,63.75,3.49c90.78,0,174.74-21.81,245.65-64.21c123.38-73.78,166.64-182.56,181.19-260.83
	C960.18,525.29,940.94,433.64,916.71,381.34z M230.19,581.65c-23.94,0-34.61-22.68-34.61-46.03c0-23.32,10.67-46.01,34.61-46.01
	c23.92,0,34.58,22.68,34.58,46.01C264.77,558.97,254.1,581.65,230.19,581.65z M335.82,581.65c-23.94,0-34.63-22.68-34.63-46.03
	c0-23.32,10.69-46.01,34.63-46.01c23.89,0,34.58,22.68,34.58,46.01C370.41,558.97,359.72,581.65,335.82,581.65z M902.76,618.49
	c-13.07,70.29-51.91,167.98-162.67,234.21c-100.47,60.07-209.76,63.33-283.75,55.5c-47.19-5-86.51-15.02-111.3-22.59
	c71.48-65.53,195.38-117.85,377.16-159.43c23.24-5.32,40.07-24.05,42.88-47.72c2.8-23.65-9.17-45.78-30.51-56.37
	c-172.25-85.52-294.3-191.6-366.36-265.52c-53.15-54.52-87.67-100.06-104.46-123.84c135.62-66.84,267.51-81.71,382.59-42.88
	c102.58,34.61,190.29,112.39,234.6,208.05C901.64,442.55,919.76,527.1,902.76,618.49z"/>
</svg>
